<svg width="12" height="12" viewBox="0 0 12 12" fill="none" xmlns="http://www.w3.org/2000/svg">
<path d="M6 1C3.235 1 1 3.235 1 6C1 8.765 3.235 11 6 11C8.765 11 11 8.765 11 6C11 3.235 8.765 1 6 1ZM8.15 8.15C7.955 8.345 7.64 8.345 7.445 8.15L6 6.705L4.555 8.15C4.36 8.345 4.045 8.345 3.85 8.15C3.655 7.955 3.655 7.64 3.85 7.445L5.295 6L3.85 4.555C3.655 4.36 3.655 4.045 3.85 3.85C4.045 3.655 4.36 3.655 4.555 3.85L6 5.295L7.445 3.85C7.64 3.655 7.955 3.655 8.15 3.85C8.345 4.045 8.345 4.36 8.15 4.555L6.705 6L8.15 7.445C8.34 7.635 8.34 7.955 8.15 8.15Z" fill="#DC2626"/>
</svg>
