<svg width="18" height="18" viewBox="0 0 18 18" fill="none" xmlns="http://www.w3.org/2000/svg">
<path d="M13.1287 2.7583C11.6662 2.7583 10.0912 3.0583 9.00366 3.8833C7.91616 3.0583 6.34116 2.7583 4.87866 2.7583C3.79116 2.7583 2.63616 2.9233 1.66866 3.3508C1.12116 3.5983 0.753662 4.1308 0.753662 4.7383V13.1983C0.753662 14.1733 1.66866 14.8933 2.61366 14.6533C3.34866 14.4658 4.12866 14.3833 4.87866 14.3833C6.04866 14.3833 7.29366 14.5783 8.29866 15.0733C8.74866 15.2983 9.25866 15.2983 9.70116 15.0733C10.7062 14.5708 11.9512 14.3833 13.1212 14.3833C13.8712 14.3833 14.6512 14.4658 15.3862 14.6533C16.3312 14.9008 17.2462 14.1808 17.2462 13.1983V4.7383C17.2462 4.1308 16.8787 3.5983 16.3312 3.3508C15.3712 2.9233 14.2162 2.7583 13.1287 2.7583ZM15.7537 12.3058C15.7537 12.7783 15.3187 13.1233 14.8537 13.0408C14.2912 12.9358 13.7062 12.8908 13.1287 12.8908C11.8537 12.8908 10.0162 13.3783 9.00366 14.0158V5.3833C10.0162 4.7458 11.8537 4.2583 13.1287 4.2583C13.8187 4.2583 14.5012 4.3258 15.1537 4.4683C15.4987 4.5433 15.7537 4.8508 15.7537 5.2033V12.3058Z" fill="#6B6E72"/>
<path d="M10.4887 7.6408C10.2487 7.6408 10.0312 7.4908 9.95616 7.2508C9.85866 6.9583 10.0237 6.6358 10.3162 6.5458C11.4712 6.1708 12.9637 6.0508 14.3362 6.2083C14.6437 6.2458 14.8687 6.5233 14.8312 6.8308C14.7937 7.1383 14.5162 7.3633 14.2087 7.3258C12.9937 7.1833 11.6662 7.2958 10.6612 7.6183C10.6012 7.6258 10.5412 7.6408 10.4887 7.6408Z" fill="#6B6E72"/>
<path d="M10.4887 9.6358C10.2487 9.6358 10.0312 9.4858 9.95616 9.2458C9.85866 8.9533 10.0237 8.6308 10.3162 8.5408C11.4637 8.1658 12.9637 8.0458 14.3362 8.2033C14.6437 8.2408 14.8687 8.5183 14.8312 8.8258C14.7937 9.1333 14.5162 9.3583 14.2087 9.3208C12.9937 9.1783 11.6662 9.2908 10.6612 9.6133C10.6012 9.6283 10.5412 9.6358 10.4887 9.6358Z" fill="#6B6E72"/>
<path d="M10.4887 11.6308C10.2487 11.6308 10.0312 11.4808 9.95616 11.2408C9.85866 10.9483 10.0237 10.6258 10.3162 10.5358C11.4637 10.1608 12.9637 10.0408 14.3362 10.1983C14.6437 10.2358 14.8687 10.5133 14.8312 10.8208C14.7937 11.1283 14.5162 11.3458 14.2087 11.3158C12.9937 11.1733 11.6662 11.2858 10.6612 11.6083C10.6012 11.6233 10.5412 11.6308 10.4887 11.6308Z" fill="#6B6E72"/>
</svg>
