<svg width="28" height="28" viewBox="0 0 28 28" fill="none" xmlns="http://www.w3.org/2000/svg">
<path d="M14.0001 25.375C15.2834 25.375 16.3334 24.325 16.3334 23.0417H11.6667C11.6667 24.325 12.7167 25.375 14.0001 25.375ZM21.0001 18.375V12.5417C21.0001 8.96 19.0984 5.96167 15.7501 5.16833V4.375C15.7501 3.40667 14.9684 2.625 14.0001 2.625C13.0317 2.625 12.2501 3.40667 12.2501 4.375V5.16833C8.91341 5.96167 7.00008 8.94833 7.00008 12.5417V18.375L4.66675 20.7083V21.875H23.3334V20.7083L21.0001 18.375ZM18.6667 19.5417H9.33341V12.5417C9.33341 9.64833 11.0951 7.29167 14.0001 7.29167C16.9051 7.29167 18.6667 9.64833 18.6667 12.5417V19.5417Z" fill="#52555B"/>
</svg>
