<svg width="16" height="16" viewBox="0 0 16 16" fill="none" xmlns="http://www.w3.org/2000/svg">
<path d="M11.1134 8.75366C12.0267 9.37366 12.6667 10.2137 12.6667 11.3337V13.3337H15.3334V11.3337C15.3334 9.88033 12.9534 9.02033 11.1134 8.75366Z" fill="#F5F5F5"/>
<path d="M10.0001 8.00033C11.4734 8.00033 12.6667 6.80699 12.6667 5.33366C12.6667 3.86033 11.4734 2.66699 10.0001 2.66699C9.68675 2.66699 9.39342 2.73366 9.11341 2.82699C9.66675 3.51366 10.0001 4.38699 10.0001 5.33366C10.0001 6.28033 9.66675 7.15366 9.11341 7.84033C9.39342 7.93366 9.68675 8.00033 10.0001 8.00033Z" fill="#F5F5F5"/>
<path d="M6.00008 8.00033C7.47341 8.00033 8.66675 6.80699 8.66675 5.33366C8.66675 3.86033 7.47341 2.66699 6.00008 2.66699C4.52675 2.66699 3.33341 3.86033 3.33341 5.33366C3.33341 6.80699 4.52675 8.00033 6.00008 8.00033ZM6.00008 4.00033C6.73342 4.00033 7.33342 4.60033 7.33342 5.33366C7.33342 6.06699 6.73342 6.66699 6.00008 6.66699C5.26675 6.66699 4.66675 6.06699 4.66675 5.33366C4.66675 4.60033 5.26675 4.00033 6.00008 4.00033Z" fill="#F5F5F5"/>
<path d="M6.00008 8.66699C4.22008 8.66699 0.666748 9.56033 0.666748 11.3337V13.3337H11.3334V11.3337C11.3334 9.56033 7.78008 8.66699 6.00008 8.66699ZM10.0001 12.0003H2.00008V11.3403C2.13341 10.8603 4.20008 10.0003 6.00008 10.0003C7.80008 10.0003 9.86675 10.8603 10.0001 11.3337V12.0003Z" fill="#F5F5F5"/>
</svg>
