<svg preserveAspectRatio="none" width="100%" height="100%" overflow="visible" style="display: block;" viewBox="0 0 16 16" fill="none" xmlns="http://www.w3.org/2000/svg">
<g id="SVG" clip-path="url(#clip0_0_10)">
<path id="Vector" d="M14.116 4.54133C14.4685 4.18895 14.6665 3.71098 14.6666 3.21257C14.6667 2.71416 14.4687 2.23614 14.1163 1.88367C13.7639 1.53119 13.286 1.33314 12.7876 1.33308C12.2892 1.33302 11.8111 1.53095 11.4587 1.88333L2.56133 10.7827C2.40655 10.937 2.29208 11.127 2.228 11.336L1.34733 14.2373C1.3301 14.295 1.3288 14.3562 1.34357 14.4146C1.35833 14.4729 1.38861 14.5262 1.4312 14.5687C1.47378 14.6112 1.52708 14.6414 1.58544 14.6561C1.6438 14.6707 1.70504 14.6693 1.76267 14.652L4.66467 13.772C4.87345 13.7085 5.06345 13.5947 5.218 13.4407L14.116 4.54133Z" stroke="var(--stroke-0, #0F1216)" stroke-width="1.33333" stroke-linecap="round" stroke-linejoin="round"/>
<path id="Vector_2" d="M10 3.33333L12.6667 6" stroke="var(--stroke-0, #0F1216)" stroke-width="1.33333" stroke-linecap="round" stroke-linejoin="round"/>
</g>
<defs>
<clipPath id="clip0_0_10">
<rect width="16" height="16" fill="white"/>
</clipPath>
</defs>
</svg>
